<mxfile host="app.diagrams.net" modified="2021-05-20T07:52:46.967Z" agent="5.0 (Windows NT 10.0; Win64; x64) AppleWebKit/537.36 (KHTML, like Gecko) Chrome/89.0.4389.90 Safari/537.36" etag="IK9FR26HVPVOEJ7E1PpH" version="14.6.13" type="github">
  <diagram id="prtHgNgQTEPvFCAcTncT" name="Page-1">
    <mxGraphModel dx="940" dy="602" grid="1" gridSize="10" guides="1" tooltips="1" connect="1" arrows="1" fold="1" page="1" pageScale="1" pageWidth="827" pageHeight="1169" math="0" shadow="0">
      <root>
        <mxCell id="0" />
        <mxCell id="1" parent="0" />
        <mxCell id="xWpp5myAzf8wlIbtvPDf-2" value="" style="endArrow=none;html=1;" edge="1" parent="1">
          <mxGeometry width="50" height="50" relative="1" as="geometry">
            <mxPoint x="388" y="320" as="sourcePoint" />
            <mxPoint x="388" y="240" as="targetPoint" />
          </mxGeometry>
        </mxCell>
        <mxCell id="xWpp5myAzf8wlIbtvPDf-3" value="" style="endArrow=none;html=1;" edge="1" parent="1">
          <mxGeometry width="50" height="50" relative="1" as="geometry">
            <mxPoint x="428" y="320" as="sourcePoint" />
            <mxPoint x="428" y="240" as="targetPoint" />
          </mxGeometry>
        </mxCell>
        <mxCell id="xWpp5myAzf8wlIbtvPDf-4" value="" style="endArrow=none;html=1;" edge="1" parent="1">
          <mxGeometry width="50" height="50" relative="1" as="geometry">
            <mxPoint x="388" y="320" as="sourcePoint" />
            <mxPoint x="428" y="320" as="targetPoint" />
          </mxGeometry>
        </mxCell>
        <mxCell id="xWpp5myAzf8wlIbtvPDf-5" value="" style="endArrow=none;html=1;" edge="1" parent="1">
          <mxGeometry width="50" height="50" relative="1" as="geometry">
            <mxPoint x="388" y="300" as="sourcePoint" />
            <mxPoint x="428" y="300" as="targetPoint" />
          </mxGeometry>
        </mxCell>
        <mxCell id="xWpp5myAzf8wlIbtvPDf-6" value="" style="ellipse;whiteSpace=wrap;html=1;" vertex="1" parent="1">
          <mxGeometry x="500" y="180" width="310" height="190" as="geometry" />
        </mxCell>
        <mxCell id="xWpp5myAzf8wlIbtvPDf-7" value="ele1" style="rounded=0;whiteSpace=wrap;html=1;" vertex="1" parent="1">
          <mxGeometry x="520" y="280" width="60" height="30" as="geometry" />
        </mxCell>
        <mxCell id="xWpp5myAzf8wlIbtvPDf-8" value="ele2" style="rounded=0;whiteSpace=wrap;html=1;" vertex="1" parent="1">
          <mxGeometry x="580" y="280" width="60" height="30" as="geometry" />
        </mxCell>
        <mxCell id="xWpp5myAzf8wlIbtvPDf-9" value="ele3" style="rounded=0;whiteSpace=wrap;html=1;" vertex="1" parent="1">
          <mxGeometry x="640" y="280" width="60" height="30" as="geometry" />
        </mxCell>
        <mxCell id="xWpp5myAzf8wlIbtvPDf-10" value="ele4" style="rounded=0;whiteSpace=wrap;html=1;" vertex="1" parent="1">
          <mxGeometry x="700" y="280" width="60" height="30" as="geometry" />
        </mxCell>
        <mxCell id="xWpp5myAzf8wlIbtvPDf-11" value="实际的数组对象" style="text;html=1;strokeColor=#6c8ebf;fillColor=#dae8fc;align=center;verticalAlign=middle;whiteSpace=wrap;rounded=0;fontStyle=1" vertex="1" parent="1">
          <mxGeometry x="670" y="240" width="90" height="20" as="geometry" />
        </mxCell>
        <mxCell id="xWpp5myAzf8wlIbtvPDf-12" value="" style="endArrow=classic;html=1;entryX=0;entryY=0.25;entryDx=0;entryDy=0;" edge="1" parent="1" target="xWpp5myAzf8wlIbtvPDf-7">
          <mxGeometry width="50" height="50" relative="1" as="geometry">
            <mxPoint x="430" y="310" as="sourcePoint" />
            <mxPoint x="440" y="270" as="targetPoint" />
          </mxGeometry>
        </mxCell>
        <mxCell id="xWpp5myAzf8wlIbtvPDf-13" value="栈内存" style="text;html=1;strokeColor=#6c8ebf;fillColor=#dae8fc;align=center;verticalAlign=middle;whiteSpace=wrap;rounded=0;fontStyle=1" vertex="1" parent="1">
          <mxGeometry x="390" y="330" width="40" height="20" as="geometry" />
        </mxCell>
        <mxCell id="xWpp5myAzf8wlIbtvPDf-18" value="堆内存" style="text;html=1;strokeColor=#b85450;fillColor=#f8cecc;align=center;verticalAlign=middle;whiteSpace=wrap;rounded=0;fontStyle=1" vertex="1" parent="1">
          <mxGeometry x="640" y="380" width="40" height="20" as="geometry" />
        </mxCell>
        <mxCell id="xWpp5myAzf8wlIbtvPDf-19" value="数组变量p" style="text;html=1;strokeColor=none;fillColor=none;align=center;verticalAlign=middle;whiteSpace=wrap;rounded=0;fontStyle=1" vertex="1" parent="1">
          <mxGeometry x="310" y="300" width="60" height="20" as="geometry" />
        </mxCell>
      </root>
    </mxGraphModel>
  </diagram>
</mxfile>
